<?xml version="1.0" encoding="UTF-8"?> <svg xmlns="http://www.w3.org/2000/svg" width="260" height="192" viewBox="0 0 260 192" fill="none"><path d="M82.94 63.85C86.66 63.85 90.12 64.69 92.7 66.2L92.83 66.28C96.09 68.2 100.26 69.15 104.44 69.15C108.62 69.15 112.79 68.19 116.05 66.28L116.59 65.96L114.74 62.82L114.2 63.14C108.91 66.26 99.97 66.25 94.68 63.14L94.55 63.06C91.42 61.22 87.3 60.2 82.94 60.2V63.84V63.85Z" fill="#5B715C"></path><path d="M75.73 76.5601C81.02 74.6801 88.18 75.07 92.7 77.72L92.84 77.8001C99.35 81.6301 109.55 81.6301 116.05 77.8001L116.59 77.48C121.88 74.37 130.82 74.37 136.11 77.48L136.52 77.72C143.03 81.55 153.23 81.55 159.74 77.72L160.01 77.5601C164.75 74.7701 172.39 74.49 177.74 76.69C178.21 75.57 178.63 74.43 179.03 73.28C172.6 70.65 163.93 71.0301 158.16 74.4301L157.89 74.5901C152.6 77.7001 143.66 77.7001 138.37 74.5901L137.96 74.35C131.45 70.52 121.25 70.52 114.75 74.35L114.21 74.67C108.92 77.78 99.98 77.78 94.69 74.67L94.55 74.5901C89.01 71.3301 80.79 70.8501 74.45 73.1501C74.84 74.3001 75.27 75.45 75.73 76.57V76.5601Z" fill="#5B715C"></path><path d="M92.83 54.75C95.99 56.61 100.2 57.6 104.48 57.6C106.44 57.6 108.41 57.39 110.3 56.96L109.49 53.41C104.34 54.58 98.53 53.87 94.68 51.61L94.54 51.53C92.83 50.52 90.84 49.77 88.63 49.28L87.85 52.84C89.69 53.25 91.32 53.86 92.7 54.67L92.84 54.75H92.83Z" fill="#5B715C"></path><path d="M158.15 85.96L157.88 86.12C152.59 89.23 143.65 89.23 138.36 86.12L137.95 85.88C131.44 82.05 121.24 82.05 114.74 85.88L114.2 86.2C108.91 89.31 99.97 89.31 94.68 86.2L94.55 86.12C90.33 83.63 84.55 82.77 79.24 83.51C79.94 84.69 80.69 85.84 81.48 86.97C85.51 86.73 89.7 87.49 92.7 89.26L92.83 89.34C99.34 93.17 109.54 93.17 116.04 89.34L116.58 89.02C121.87 85.91 130.81 85.91 136.1 89.02L136.51 89.26C143.02 93.09 153.22 93.09 159.73 89.26L160 89.1C163.23 87.2 167.82 86.47 172.1 86.89C172.87 85.78 173.61 84.65 174.3 83.48C168.76 82.52 162.59 83.35 158.15 85.96Z" fill="#5B715C"></path><path d="M158.15 97.4901L157.88 97.6501C152.59 100.76 143.65 100.76 138.36 97.6501L137.95 97.41C131.44 93.58 121.24 93.58 114.74 97.41L114.2 97.73C108.91 100.84 99.97 100.84 94.68 97.73L94.54 97.6501C92.83 96.6401 90.86 95.9101 88.77 95.4301C91.93 98.4201 95.44 101.04 99.23 103.22C104.93 104.37 111.41 103.59 116.04 100.87L116.58 100.55C121.87 97.4401 130.81 97.4401 136.1 100.55L136.51 100.79C141.66 103.82 149.1 104.44 155.21 102.68C158.82 100.51 162.16 97.92 165.17 95.01C162.62 95.46 160.19 96.2801 158.14 97.4901H158.15Z" fill="#5B715C"></path><path d="M148.12 69.07C152.3 69.07 156.47 68.11 159.73 66.2L160 66.04C162.89 64.34 166.93 63.49 171.09 63.72L171.29 60.08C166.43 59.81 161.65 60.83 158.15 62.89L157.88 63.05C152.59 66.16 143.65 66.16 138.36 63.05L137.95 62.81L136.1 65.95L136.51 66.19C139.76 68.11 143.94 69.06 148.12 69.06V69.07Z" fill="#5B715C"></path><path d="M138.36 109.17L137.95 108.93C131.44 105.1 121.24 105.1 114.73 108.93L114.36 109.15C116.62 109.67 118.92 110.06 121.27 110.29C124.58 109.54 128.32 109.56 131.61 110.34C133.97 110.13 136.29 109.78 138.56 109.29C138.49 109.25 138.42 109.22 138.35 109.18L138.36 109.17Z" fill="#5B715C"></path><path d="M126.87 0C96.34 0 71.59 24.75 71.59 55.28C71.59 62.36 72.77 69.03 75.2 75.26L75.73 76.57L77.41 80.22L79.86 75.27L99.32 33.85L117.86 75.24L121.23 75.12L126.77 59.98L132.45 75.13L135.82 75.22L154.05 33.67L177.3 77.95L178.66 74.33C180.83 68.4 182.14 61.96 182.14 55.28C182.14 24.75 157.39 0 126.86 0H126.87ZM152.25 28.75L134.3 69.66L128.47 54.1H125.05L119.36 69.66L101.03 28.74L97.72 28.71L77.76 71.2C76.13 66.18 75.24 60.84 75.24 55.29C75.24 26.82 98.4 3.64999 126.88 3.64999C155.36 3.64999 178.52 26.81 178.52 55.29C178.52 60.1 177.91 64.6 176.7 68.94L155.54 28.64L152.26 28.75H152.25Z" fill="#C8DBD3"></path><path d="M14.07 185.69C13.53 185.01 12.75 184.62 11.88 184.62C10.14 184.62 8.82 186.16 8.82 188.21C8.82 190.26 10.14 191.78 11.88 191.78C12.74 191.78 13.52 191.39 14.07 190.71L14.1 191.59H14.87V184.8H14.1L14.07 185.68V185.69ZM11.88 190.94C10.61 190.94 9.66 189.77 9.66 188.21C9.66 186.65 10.59 185.46 11.88 185.46C13.17 185.46 14.03 186.59 14.03 188.21C14.03 189.83 13.15 190.94 11.88 190.94Z" fill="#C8DBD3"></path><path d="M26.29 188.09C26.82 187.76 27.13 187.26 27.13 186.68C27.13 185.56 26.15 184.81 24.69 184.81H22.09V191.6H24.69C26.29 191.6 27.41 190.82 27.41 189.69C27.41 188.96 27.01 188.41 26.28 188.09H26.29ZM24.69 190.76H22.93V188.59H24.69C25.6 188.59 26.58 188.88 26.58 189.7C26.58 190.34 25.82 190.77 24.69 190.77V190.76ZM24.69 187.75H22.93V185.65H24.69C25.66 185.65 26.29 186.05 26.29 186.68C26.29 187.31 25.59 187.75 24.69 187.75Z" fill="#C8DBD3"></path><path d="M33.28 185.65H35.75V191.6H36.59V185.65H39.06V184.81H33.28V185.65Z" fill="#C8DBD3"></path><path d="M47.98 184.62C46.21 184.62 44.87 186.16 44.87 188.21C44.87 190.26 46.21 191.78 47.98 191.78C49.75 191.78 51.11 190.28 51.11 188.21C51.11 186.14 49.79 184.62 47.98 184.62ZM47.98 190.94C46.69 190.94 45.71 189.77 45.71 188.21C45.71 186.65 46.67 185.46 47.98 185.46C49.29 185.46 50.28 186.59 50.28 188.21C50.28 189.83 49.36 190.94 47.98 190.94Z" fill="#C8DBD3"></path><path d="M64.15 184.22L63.88 184.81H63.61L61.12 190.2L58.64 184.81H58.37L58.08 184.19V184.81H57.84V191.6H58.67V186.89L60.84 191.6H61.11L61.12 191.61L61.41 191.6L63.56 186.91V191.6H64.4V184.81H64.15V184.22Z" fill="#C8DBD3"></path><path d="M74.23 184.62C72.46 184.62 71.12 186.16 71.12 188.21C71.12 190.26 72.46 191.78 74.23 191.78C76 191.78 77.36 190.28 77.36 188.21C77.36 186.14 76.04 184.62 74.23 184.62ZM74.23 190.94C72.94 190.94 71.96 189.77 71.96 188.21C71.96 186.65 72.92 185.46 74.23 185.46C75.54 185.46 76.53 186.59 76.53 188.21C76.53 189.83 75.61 190.94 74.23 190.94Z" fill="#C8DBD3"></path><path d="M88.81 189.56C88.28 190.47 87.53 190.95 86.65 190.95C85.5 190.95 84.61 190 84.46 188.64H89.72V188.22C89.72 186.14 88.43 184.63 86.65 184.63C84.87 184.63 83.6 186.17 83.6 188.22C83.6 190.27 84.91 191.79 86.65 191.79C87.89 191.79 88.94 191.1 89.6 189.85L89.83 189.42H88.9L88.81 189.57V189.56ZM86.65 185.47C87.86 185.47 88.72 186.4 88.86 187.8H84.46C84.61 186.43 85.5 185.47 86.65 185.47Z" fill="#C8DBD3"></path><path d="M101.39 186.59C101.39 188.16 100.54 189.26 99.32 189.26C98.1 189.26 97.28 188.19 97.28 186.59V184.81H96.44V186.59C96.44 188.65 97.62 190.1 99.31 190.1C100.13 190.1 100.86 189.75 101.38 189.13V191.6H102.22V184.81H101.38V186.59H101.39Z" fill="#C8DBD3"></path><path d="M114.54 187.79H110.29V184.81H109.45V191.6H110.29V188.62H114.54V191.6H115.38V184.81H114.54V187.79Z" fill="#C8DBD3"></path><path d="M129.96 184.81H129.12V191.6H129.96V184.81Z" fill="#C8DBD3"></path><path d="M125.02 186.61H123.44V184.81H122.6V191.6H125.01C126.95 191.6 128.06 190.69 128.06 189.1C128.06 187.51 126.86 186.61 125.01 186.61H125.02ZM123.44 187.45H125.02C126.4 187.45 127.23 188.07 127.23 189.1C127.23 190.2 126.49 190.76 125.02 190.76H123.44V187.45Z" fill="#C8DBD3"></path><path d="M138.01 182.33V182.63C138.01 183.69 138.92 184.52 140.09 184.52C141.26 184.52 142.14 183.69 142.14 182.63V182.33H141.3V182.63C141.3 183.22 140.77 183.69 140.08 183.69C139.39 183.69 138.84 183.22 138.84 182.63V182.33H138H138.01Z" fill="#C8DBD3"></path><path d="M142.75 184.72L142.68 184.81H142.37L138.02 190.05V184.81H137.18V191.6H137.43V191.69L137.5 191.6H137.81L142.16 186.36V191.6H143V184.81H142.75V184.72Z" fill="#C8DBD3"></path><path d="M164.05 184.81H162.98L160.62 187.79H159.74V184.81H158.9V191.6H159.74V188.62H160.63L163.28 191.6H164.39L161.37 188.19L164.05 184.81Z" fill="#C8DBD3"></path><path d="M172.51 184.62C170.74 184.62 169.4 186.16 169.4 188.21C169.4 190.26 170.74 191.78 172.51 191.78C174.28 191.78 175.64 190.28 175.64 188.21C175.64 186.14 174.32 184.62 172.51 184.62ZM172.51 190.94C171.22 190.94 170.24 189.77 170.24 188.21C170.24 186.65 171.2 185.46 172.51 185.46C173.82 185.46 174.81 186.59 174.81 188.21C174.81 189.83 173.89 190.94 172.51 190.94Z" fill="#C8DBD3"></path><path d="M188.69 184.22L188.41 184.81H188.14L185.65 190.2L183.18 184.81H182.9L182.62 184.19V184.81H182.37V191.6H183.21V186.89L185.38 191.6H185.65V191.61L185.94 191.6L188.1 186.91V191.6H188.94V184.81H188.69V184.22Z" fill="#C8DBD3"></path><path d="M196.16 191.6H197V185.65H201.19V191.6H202.03V184.81H196.16V191.6Z" fill="#C8DBD3"></path><path d="M210.28 189.16C210.07 190.67 209.7 190.95 209.05 190.95H208.75V191.79H209.05C210.56 191.79 210.94 190.58 211.12 189.27L211.61 185.66H215.1V191.61H215.94V184.82H210.89L210.3 189.17L210.28 189.16Z" fill="#C8DBD3"></path><path d="M227.86 189.56C227.33 190.47 226.59 190.95 225.7 190.95C224.55 190.95 223.66 190 223.51 188.64H228.77V188.22C228.77 186.14 227.48 184.63 225.7 184.63C223.92 184.63 222.65 186.17 222.65 188.22C222.65 190.27 223.96 191.79 225.7 191.79C226.94 191.79 227.99 191.1 228.65 189.85L228.88 189.42H227.95L227.86 189.57V189.56ZM225.7 185.47C226.91 185.47 227.77 186.4 227.91 187.8H223.51C223.66 186.43 224.55 185.47 225.7 185.47Z" fill="#C8DBD3"></path><path d="M240.64 184.81H239.58L237.21 187.79H236.33V184.81H235.5V191.6H236.33V188.62H237.22L239.87 191.6H240.98L237.96 188.19L240.64 184.81Z" fill="#C8DBD3"></path><path d="M251.26 189.23C250.86 190.31 250.03 190.95 249.03 190.95C247.78 190.95 246.83 189.78 246.83 188.22C246.83 186.66 247.77 185.47 249.01 185.47C249.99 185.47 250.82 186.11 251.24 187.18L251.31 187.37H252.21L252.06 186.97C251.52 185.51 250.38 184.63 249.02 184.63C247.26 184.63 245.99 186.14 245.99 188.22C245.99 190.3 247.29 191.79 249.02 191.79C250.39 191.79 251.53 190.91 252.07 189.44L252.22 189.04H251.32L251.25 189.23H251.26Z" fill="#C8DBD3"></path><path d="M28.7 137.58C27.05 135.89 25.24 134.65 23.31 133.88C21.39 133.11 19.26 132.73 16.96 132.73C14.79 132.73 12.71 133.1 10.77 133.84C8.81 134.58 7.08 135.69 5.63 137.13C3.69 139.04 2.25 141.19 1.35 143.51C0.459998 145.81 0 148.44 0 151.33C0 153.95 0.399995 156.4 1.18999 158.61C1.98999 160.85 3.22 162.87 4.84 164.62C6.47 166.38 8.32 167.69 10.34 168.53C12.35 169.36 14.58 169.79 16.96 169.79C19.34 169.79 21.53 169.38 23.43 168.58C25.33 167.78 27.1 166.55 28.69 164.94C30.42 163.17 31.73 161.12 32.59 158.82C33.44 156.55 33.87 154.01 33.87 151.27C33.87 148.53 33.43 145.86 32.58 143.62C31.71 141.36 30.41 139.33 28.7 137.59V137.58ZM28.38 157.88C27.62 159.68 26.44 161.38 24.89 162.92C23.85 163.94 22.63 164.7 21.26 165.2C19.87 165.71 18.38 165.96 16.91 165.96C15.44 165.96 13.87 165.69 12.48 165.14C11.09 164.6 9.86 163.8 8.82 162.76C7.34 161.31 6.21 159.61 5.48 157.73C4.74 155.83 4.36 153.65 4.36 151.28C4.36 148.91 4.77 146.59 5.59 144.59C6.4 142.6 7.54 140.91 9 139.55C10.15 138.49 11.38 137.71 12.65 137.24C15.14 136.32 18.31 136.24 21.18 137.26C22.53 137.74 23.8 138.55 24.98 139.66C26.4 141.01 27.52 142.67 28.32 144.62C29.12 146.57 29.53 148.73 29.53 151.01C29.53 153.77 29.15 156.08 28.39 157.87L28.38 157.88Z" fill="#C8DBD3"></path><path d="M63.38 152.59H67.15V152.94C67.15 158.05 67.14 161.62 67.12 163.56C67.1 165.7 67.09 167.1 67.09 167.76V168.9H71.44V167.76C71.44 166.74 71.44 164.43 71.41 160.83C71.39 157.23 71.38 153.73 71.38 150.31C71.38 148.72 71.38 146.72 71.41 144.3C71.43 141.88 71.44 138.7 71.44 134.75V133.61H67.09V134.75C67.09 136.36 67.09 138.57 67.12 141.36C67.13 143.67 67.14 145.99 67.15 148.33V148.67L63.72 148.68C61.09 148.68 58.85 148.69 57 148.69C54.25 148.69 51.62 148.69 49.12 148.68H46.11V148.33C46.11 145.86 46.12 143.53 46.14 141.34C46.16 138.72 46.17 136.52 46.17 134.74V133.6H41.82V134.74C41.82 137.52 41.82 140.24 41.85 142.89C41.87 145.54 41.88 147.79 41.88 149.65C41.88 155.54 41.88 159.9 41.85 162.62C41.83 165.36 41.82 167.07 41.82 167.74V168.88H46.17V167.74C46.17 166.84 46.17 164.66 46.14 161.2C46.13 158.3 46.12 155.54 46.11 152.92V152.58L49.63 152.57C52.46 152.57 54.9 152.56 56.96 152.56C58.36 152.56 60.5 152.56 63.39 152.57L63.38 152.59Z" fill="#C8DBD3"></path><path d="M108.46 137.62H109.6V133.69H108.46C108.26 133.69 107.14 133.69 105.09 133.69H104.19C101.57 133.7 98.3 133.71 94.37 133.71C91.67 133.71 89.13 133.71 86.75 133.7C84.36 133.7 82.34 133.69 80.68 133.69H79.54V137.62H80.68C80.89 137.62 82.22 137.62 84.68 137.61C86.78 137.61 89.23 137.6 92.05 137.6H92.39V137.94C92.39 140.79 92.4 143.18 92.42 145.12C92.44 147.39 92.45 149.95 92.45 152.8C92.45 155.65 92.45 158.68 92.42 161.72C92.4 164.76 92.39 166.78 92.39 167.77V168.91H96.74V167.77C96.74 166.78 96.74 164.8 96.71 161.81C96.69 158.83 96.68 155.89 96.68 153.01C96.68 150.13 96.68 147.34 96.71 145.02C96.72 143.04 96.73 140.68 96.74 137.95V137.61H97.08C100.26 137.61 102.81 137.61 104.75 137.62C106.97 137.62 108.22 137.63 108.48 137.63L108.46 137.62Z" fill="#C8DBD3"></path><path d="M213.16 168.26C213.23 168.04 214.01 165.92 217.27 157.09C219.9 149.98 222.65 142.7 225.46 135.45L225.89 134.34L221.74 132.89L221.43 134.07C221.34 134.36 220.64 136.24 217.82 143.62C215.9 148.63 213.87 154.09 211.79 159.85L211.47 160.73L211.16 159.84C209.59 155.41 207.92 150.64 206.17 145.61C203.19 137.02 202.74 135.67 202.69 135.48L202.47 134.6L199.21 134.62L198.95 135.42C198.83 135.78 197.59 139.09 195.35 144.98C193.46 149.94 191.5 155.04 189.52 160.14L189.19 160.99L188.89 160.13C186.94 154.54 184.98 149.08 183.05 143.9C180.02 135.76 179.48 134.25 179.42 134.07L179.07 132.92L174.91 134.4L175.32 135.49C178.65 144.4 181.46 152.06 183.68 158.26C185.85 164.32 187.07 167.76 187.2 168.21L187.44 169.03H190.53L194.6 158.43C196.5 153.47 198.42 148.5 200.32 143.62L200.65 142.78L200.95 143.63C203.03 149.46 204.9 154.76 206.52 159.39C209.03 166.58 209.5 167.99 209.56 168.19L209.79 169.03H212.9L213.16 168.25V168.26Z" fill="#C8DBD3"></path><path d="M229.73 164.18C230.71 162.05 231.9 159.51 233.26 156.62L233.35 156.43H248.86L248.95 156.62C250.37 159.62 251.53 162.09 252.38 163.96C253.29 165.95 254.06 167.59 254.66 168.83L255.13 169.8L259.12 168.12L258.61 167.05C257.75 165.23 255.35 160.18 251.44 151.91C247.53 143.66 244.71 137.65 243.05 134.05L242.75 133.39H239.79L239.48 134.05C237.08 139.15 233.97 145.71 230.21 153.56C226.47 161.38 224.31 165.88 223.74 167.06L223.22 168.14L227.09 169.78L227.56 168.81C227.9 168.12 228.6 166.61 229.71 164.21L229.73 164.18ZM235.38 152.11C236.17 150.41 237.08 148.48 238.09 146.3C239.04 144.25 239.95 142.31 240.81 140.49L241.11 139.84L241.41 140.49C242.19 142.15 243.05 143.96 243.97 145.92C245.03 148.17 245.99 150.24 246.86 152.12L247.08 152.6H235.15L235.37 152.12L235.38 152.11Z" fill="#C8DBD3"></path><path d="M147.46 164.18C148.44 162.05 149.63 159.51 150.99 156.62L151.08 156.43H166.59L166.68 156.62C168.1 159.62 169.26 162.09 170.11 163.96C171.03 165.97 171.8 167.61 172.39 168.83L172.86 169.8L176.85 168.12L169.17 151.91C165.24 143.62 162.42 137.61 160.78 134.05L160.47 133.39H157.51L157.2 134.05C154.8 139.16 151.68 145.73 147.93 153.56C144.19 161.38 142.03 165.88 141.46 167.06L140.94 168.14L144.81 169.78L145.28 168.81C145.62 168.12 146.32 166.61 147.43 164.21L147.46 164.18ZM153.11 152.11C153.9 150.41 154.81 148.48 155.82 146.3C156.77 144.25 157.68 142.31 158.53 140.49L158.83 139.84L159.13 140.49C159.91 142.15 160.77 143.96 161.69 145.92C162.75 148.17 163.71 150.24 164.58 152.12L164.8 152.6H152.87L153.09 152.12L153.11 152.11Z" fill="#C8DBD3"></path><path d="M127.04 134.01L126.73 133.35H123.77L123.46 134C121.07 139.09 117.95 145.65 114.19 153.51C110.45 161.33 108.29 165.83 107.72 167.01L107.2 168.09L111.07 169.73L111.54 168.76C111.88 168.07 112.58 166.56 113.69 164.16C114.67 162.03 115.86 159.49 117.22 156.6L117.31 156.41H132.82L132.91 156.6C134.33 159.6 135.49 162.07 136.34 163.94L136.61 164.52L139.02 159.5L135.41 151.88C131.49 143.61 128.67 137.6 127.02 134.02L127.04 134.01ZM119.12 152.57L119.34 152.09C120.13 150.39 121.04 148.46 122.05 146.28C123 144.23 123.91 142.29 124.77 140.47L125.07 139.82L125.37 140.47C126.15 142.13 127.01 143.94 127.93 145.9C128.99 148.15 129.95 150.22 130.82 152.1L131.04 152.58H119.11L119.12 152.57Z" fill="#C8DBD3"></path><path d="M158.51 126.84L160.01 120.79H164.28L161.79 126.86L158.51 126.84Z" fill="#C8DBD3"></path></svg> 
